<mxfile host="app.diagrams.net" modified="2023-09-24T16:27:31.617Z" agent="Mozilla/5.0 (Windows NT 10.0; Win64; x64) AppleWebKit/537.36 (KHTML, like Gecko) Chrome/116.0.0.0 Safari/537.36" version="21.7.4" etag="Ub8vlaiVEq1WY_y4FUhj" type="github">
  <diagram name="Trang-1" id="7L3_uxncM6c1ZcfpUNxh">
    <mxGraphModel>
      <root>
        <mxCell id="0" />
        <mxCell id="1" parent="0" />
      </root>
    </mxGraphModel>
  </diagram>
</mxfile>
